<svg width="420" height="561" viewBox="0 0 420 561" fill="none" xmlns="http://www.w3.org/2000/svg">
<path d="M346.665 504H314.478V471.812V439.625V407.438V375.25V343.062V310.875V278.688V246.5V214.312H346.665H378.853V246.5V278.688V310.875V343.062V375.25V407.438V439.625V471.812V504H346.665ZM346.665 182.125H314.478V149.938V117.75H346.665H378.853V149.938V182.125H346.665Z" fill="white"/>
<rect x="314" y="117" width="65" height="65" fill="white"/>
<path d="M32.1875 505.562H0V473.375V441.188V409V376.812V344.625V312.438V280.25V248.062V215.875V183.688V151.5V119.312H32.1875H64.375V151.5V183.688H96.5625H128.75V215.875V248.062H96.5625H64.375V280.25V312.438H96.5625H128.75H160.938H193.125H225.312V344.625V376.812H193.125H160.938H128.75H96.5625H64.375V409V441.188V473.375V505.562H32.1875ZM225.312 312.438V280.25V248.062V215.875V183.688H257.5H289.688V215.875V248.062V280.25V312.438H257.5H225.312ZM225.312 183.688H193.125H160.938H128.75V151.5V119.312H160.938H193.125H225.312V151.5V183.688Z" fill="white"/>
</svg>
