<svg width="3381" height="387" viewBox="0 0 3381 387" fill="none" xmlns="http://www.w3.org/2000/svg">
<path d="M32.1875 387H0V354.812V322.625V290.438V258.25V226.062V193.875V161.688V129.5V97.3125V65.125V32.9375V0.75H32.1875H64.375H96.5625H128.75H160.938H193.125H225.312H257.5V32.9375V65.125H289.688H321.875V97.3125V129.5H289.688H257.5V97.3125V65.125H225.312H193.125H160.938H128.75H96.5625H64.375V97.3125V129.5H96.5625H128.75H160.938H193.125H225.312H257.5V161.688V193.875H225.312H193.125H160.938H128.75H96.5625H64.375V226.062V258.25V290.438V322.625V354.812V387H32.1875ZM661.775 387H629.587H597.4H565.212H533.025H500.837V354.812V322.625H533.025H565.212H597.4H629.587V290.438H661.775H693.962V322.625V354.812V387H661.775ZM500.837 322.625H468.65H436.462V290.438V258.25V226.062V193.875V161.688H468.65H500.837V129.5V97.3125H533.025H565.212H597.4H629.587H661.775H693.962V129.5V161.688V193.875V226.062H661.775H629.587V258.25H597.4H565.212H533.025H500.837V290.438V322.625ZM597.4 193.875H629.587V161.688H597.4H565.212H533.025H500.837V193.875H533.025H565.212H597.4ZM1098.24 387H1066.05V354.812V322.625H1098.24H1130.42V354.812V387H1098.24ZM840.737 387H808.55V354.812V322.625H840.737H872.925V354.812V387H840.737ZM1066.05 322.625H1033.86H1001.67V290.438V258.25H1033.86H1066.05V290.438V322.625ZM872.925 322.625V290.438V258.25H905.112H937.3V290.438V322.625H905.112H872.925ZM1001.67 258.25H969.487H937.3V226.062V193.875H969.487H1001.67V226.062V258.25ZM1001.67 193.875V161.688V129.5H1033.86H1066.05V161.688V193.875H1033.86H1001.67ZM937.3 193.875H905.112H872.925V161.688V129.5H905.112H937.3V161.688V193.875ZM1066.05 129.5V97.3125V65.125H1098.24H1130.42V97.3125V129.5H1098.24H1066.05ZM872.925 129.5H840.737H808.55V97.3125V65.125H840.737H872.925V97.3125V129.5ZM1470.32 387H1438.14H1405.95H1373.76H1341.57H1309.39V354.812V322.625H1341.57H1373.76H1405.95H1438.14V290.438H1470.32H1502.51V322.625V354.812V387H1470.32ZM1309.39 322.625H1277.2H1245.01V290.438V258.25V226.062V193.875V161.688H1277.2H1309.39V129.5V97.3125H1341.57H1373.76H1405.95H1438.14H1470.32H1502.51V129.5V161.688V193.875V226.062H1470.32H1438.14V258.25H1405.95H1373.76H1341.57H1309.39V290.438V322.625ZM1405.95 193.875H1438.14V161.688H1405.95H1373.76H1341.57H1309.39V193.875H1341.57H1373.76H1405.95ZM1649.29 387H1617.1V354.812V322.625V290.438V258.25V226.062V193.875V161.688V129.5V97.3125V65.125V32.9375V0.75H1649.29H1681.47V32.9375V65.125V97.3125V129.5V161.688V193.875V226.062V258.25V290.438V322.625V354.812V387H1649.29ZM1828.25 387H1796.06V354.812V322.625V290.438V258.25V226.062V193.875V161.688V129.5V97.3125H1828.25H1860.44V129.5V161.688V193.875V226.062V258.25V290.438V322.625V354.812V387H1828.25ZM1828.25 65.125H1796.06V32.9375V0.75H1828.25H1860.44V32.9375V65.125H1828.25ZM2168.15 387H2135.96H2103.78H2071.59H2039.4V354.812V322.625H2071.59H2103.78H2135.96H2168.15H2200.34V354.812V387H2168.15ZM2200.34 322.625V290.438V258.25H2232.53H2264.71V290.438V322.625H2232.53H2200.34ZM2039.4 322.625H2007.21H1975.03V290.438V258.25V226.062V193.875V161.688H2007.21H2039.4V193.875V226.062V258.25V290.438V322.625ZM2232.53 226.062H2200.34V193.875V161.688H2232.53H2264.71V193.875V226.062H2232.53ZM2200.34 161.688H2168.15H2135.96H2103.78H2071.59H2039.4V129.5V97.3125H2071.59H2103.78H2135.96H2168.15H2200.34V129.5V161.688ZM2540.24 387H2508.05H2475.86H2443.68V354.812V322.625H2475.86H2508.05H2540.24H2572.43V354.812V387H2540.24ZM2572.43 322.625V290.438V258.25V226.062V193.875V161.688H2604.61H2636.8V193.875V226.062V258.25V290.438V322.625H2604.61H2572.43ZM2443.68 322.625H2411.49H2379.3V290.438V258.25V226.062V193.875V161.688H2411.49H2443.68V193.875V226.062V258.25V290.438V322.625ZM2572.43 161.688H2540.24H2508.05H2475.86H2443.68V129.5V97.3125H2475.86H2508.05H2540.24H2572.43V129.5V161.688ZM3008.89 387H2976.7V354.812V322.625V290.438V258.25V226.062V193.875V161.688H3008.89H3041.07V193.875V226.062V258.25V290.438V322.625V354.812V387H3008.89ZM2783.57 387H2751.39V354.812V322.625V290.438V258.25V226.062V193.875V161.688V129.5V97.3125H2783.57H2815.76H2847.95H2880.14H2912.32H2944.51H2976.7V129.5V161.688H2944.51H2912.32H2880.14H2847.95H2815.76V193.875V226.062V258.25V290.438V322.625V354.812V387H2783.57ZM3284.41 387H3252.23H3220.04H3187.85H3155.66V354.812V322.625H3187.85H3220.04H3252.23H3284.41H3316.6V354.812V387H3284.41ZM3316.6 322.625V290.438V258.25H3348.79H3380.98V290.438V322.625H3348.79H3316.6ZM3316.6 258.25H3284.41H3252.23H3220.04V226.062V193.875H3252.23H3284.41H3316.6V226.062V258.25ZM3220.04 193.875H3187.85H3155.66V161.688V129.5H3187.85H3220.04V161.688V193.875ZM3348.79 129.5H3316.6H3284.41H3252.23H3220.04V97.3125V65.125H3252.23H3284.41H3316.6H3348.79H3380.98V97.3125V129.5H3348.79Z" fill="white"/>
</svg>
